<mxfile host="app.diagrams.net" modified="2020-12-18T09:56:53.731Z" agent="5.0 (Windows NT 10.0; Win64; x64) AppleWebKit/537.36 (KHTML, like Gecko) Chrome/87.0.4280.88 Safari/537.36 Edg/87.0.664.60" etag="Coav4qyTDcb-xGIN4v2E" version="14.0.1" type="github">
  <diagram id="N5serG8CPafrr764YqIl" name="Page-1">
    <mxGraphModel dx="1422" dy="794" grid="1" gridSize="10" guides="1" tooltips="1" connect="1" arrows="1" fold="1" page="1" pageScale="1" pageWidth="827" pageHeight="1169" math="0" shadow="0">
      <root>
        <mxCell id="0" />
        <mxCell id="1" parent="0" />
        <mxCell id="HW6tQYSSuZe_WuAmER0y-1" value="开启账单" style="rounded=1;whiteSpace=wrap;html=1;" vertex="1" parent="1">
          <mxGeometry x="80" y="20" width="140" height="50" as="geometry" />
        </mxCell>
        <mxCell id="HW6tQYSSuZe_WuAmER0y-2" value="寒暄" style="shape=ext;double=1;rounded=0;whiteSpace=wrap;html=1;" vertex="1" parent="1">
          <mxGeometry x="90" y="110" width="126" height="50" as="geometry" />
        </mxCell>
        <mxCell id="HW6tQYSSuZe_WuAmER0y-3" value="第一页:会员总览" style="shape=ext;double=1;rounded=0;whiteSpace=wrap;html=1;" vertex="1" parent="1">
          <mxGeometry x="90" y="200" width="120" height="50" as="geometry" />
        </mxCell>
        <mxCell id="HW6tQYSSuZe_WuAmER0y-4" value="第二页:会员加油榜" style="shape=ext;double=1;rounded=0;whiteSpace=wrap;html=1;" vertex="1" parent="1">
          <mxGeometry x="90" y="280" width="120" height="50" as="geometry" />
        </mxCell>
        <mxCell id="HW6tQYSSuZe_WuAmER0y-5" value="第三页:会员最早加油" style="shape=ext;double=1;rounded=0;whiteSpace=wrap;html=1;" vertex="1" parent="1">
          <mxGeometry x="90" y="360" width="120" height="50" as="geometry" />
        </mxCell>
        <mxCell id="HW6tQYSSuZe_WuAmER0y-6" value="第四页:会员最晚加油" style="shape=ext;double=1;rounded=0;whiteSpace=wrap;html=1;" vertex="1" parent="1">
          <mxGeometry x="90" y="440" width="120" height="50" as="geometry" />
        </mxCell>
        <mxCell id="HW6tQYSSuZe_WuAmER0y-7" value="第五页:会员常去油站" style="shape=ext;double=1;rounded=0;whiteSpace=wrap;html=1;" vertex="1" parent="1">
          <mxGeometry x="90" y="520" width="120" height="50" as="geometry" />
        </mxCell>
        <mxCell id="HW6tQYSSuZe_WuAmER0y-8" value="第六页:会员省钱统计" style="shape=ext;double=1;rounded=0;whiteSpace=wrap;html=1;" vertex="1" parent="1">
          <mxGeometry x="90" y="590" width="120" height="50" as="geometry" />
        </mxCell>
        <mxCell id="HW6tQYSSuZe_WuAmER0y-9" value="是否参与过抽奖" style="html=1;whiteSpace=wrap;aspect=fixed;shape=isoRectangle;" vertex="1" parent="1">
          <mxGeometry x="330" y="100" width="150" height="90" as="geometry" />
        </mxCell>
        <mxCell id="HW6tQYSSuZe_WuAmER0y-10" value="" style="edgeStyle=elbowEdgeStyle;elbow=horizontal;endArrow=classic;html=1;" edge="1" parent="1" target="HW6tQYSSuZe_WuAmER0y-9">
          <mxGeometry width="50" height="50" relative="1" as="geometry">
            <mxPoint x="210" y="610" as="sourcePoint" />
            <mxPoint x="260" y="560" as="targetPoint" />
          </mxGeometry>
        </mxCell>
        <mxCell id="HW6tQYSSuZe_WuAmER0y-11" value="" style="endArrow=classic;html=1;exitX=0.493;exitY=1.011;exitDx=0;exitDy=0;exitPerimeter=0;" edge="1" parent="1">
          <mxGeometry width="50" height="50" relative="1" as="geometry">
            <mxPoint x="403.95000000000005" y="185.99" as="sourcePoint" />
            <mxPoint x="404" y="275" as="targetPoint" />
          </mxGeometry>
        </mxCell>
        <mxCell id="HW6tQYSSuZe_WuAmER0y-12" value="是" style="text;html=1;strokeColor=none;fillColor=none;align=center;verticalAlign=middle;whiteSpace=wrap;rounded=0;" vertex="1" parent="1">
          <mxGeometry x="400" y="210" width="40" height="20" as="geometry" />
        </mxCell>
        <mxCell id="HW6tQYSSuZe_WuAmER0y-15" value="抽奖最高奖项" style="shape=ext;double=1;rounded=0;whiteSpace=wrap;html=1;" vertex="1" parent="1">
          <mxGeometry x="345" y="280" width="120" height="50" as="geometry" />
        </mxCell>
        <mxCell id="HW6tQYSSuZe_WuAmER0y-16" value="" style="endArrow=classic;html=1;exitX=1;exitY=0.489;exitDx=0;exitDy=0;exitPerimeter=0;" edge="1" parent="1" source="HW6tQYSSuZe_WuAmER0y-9">
          <mxGeometry width="50" height="50" relative="1" as="geometry">
            <mxPoint x="480" y="174" as="sourcePoint" />
            <mxPoint x="470" y="420" as="targetPoint" />
            <Array as="points">
              <mxPoint x="590" y="144" />
              <mxPoint x="590" y="420" />
            </Array>
          </mxGeometry>
        </mxCell>
        <mxCell id="HW6tQYSSuZe_WuAmER0y-17" value="否" style="text;html=1;strokeColor=none;fillColor=none;align=center;verticalAlign=middle;whiteSpace=wrap;rounded=0;" vertex="1" parent="1">
          <mxGeometry x="590" y="210" width="40" height="20" as="geometry" />
        </mxCell>
        <mxCell id="HW6tQYSSuZe_WuAmER0y-18" value="年度幸运达人" style="shape=ext;double=1;rounded=0;whiteSpace=wrap;html=1;" vertex="1" parent="1">
          <mxGeometry x="340" y="390" width="120" height="50" as="geometry" />
        </mxCell>
        <mxCell id="HW6tQYSSuZe_WuAmER0y-19" value="" style="endArrow=classic;html=1;" edge="1" parent="1">
          <mxGeometry width="50" height="50" relative="1" as="geometry">
            <mxPoint x="402" y="332" as="sourcePoint" />
            <mxPoint x="402" y="390" as="targetPoint" />
          </mxGeometry>
        </mxCell>
        <mxCell id="HW6tQYSSuZe_WuAmER0y-20" value="" style="endArrow=classic;html=1;" edge="1" parent="1">
          <mxGeometry width="50" height="50" relative="1" as="geometry">
            <mxPoint x="399.5" y="440" as="sourcePoint" />
            <mxPoint x="399.5" y="550" as="targetPoint" />
          </mxGeometry>
        </mxCell>
        <mxCell id="HW6tQYSSuZe_WuAmER0y-21" value="结束页" style="shape=ext;double=1;rounded=0;whiteSpace=wrap;html=1;" vertex="1" parent="1">
          <mxGeometry x="340" y="550" width="120" height="50" as="geometry" />
        </mxCell>
        <mxCell id="HW6tQYSSuZe_WuAmER0y-23" value="" style="endArrow=classic;html=1;" edge="1" parent="1">
          <mxGeometry width="50" height="50" relative="1" as="geometry">
            <mxPoint x="149.5" y="70" as="sourcePoint" />
            <mxPoint x="150" y="110" as="targetPoint" />
          </mxGeometry>
        </mxCell>
        <mxCell id="HW6tQYSSuZe_WuAmER0y-24" value="" style="endArrow=classic;html=1;" edge="1" parent="1">
          <mxGeometry width="50" height="50" relative="1" as="geometry">
            <mxPoint x="150.5" y="159" as="sourcePoint" />
            <mxPoint x="151" y="199" as="targetPoint" />
          </mxGeometry>
        </mxCell>
        <mxCell id="HW6tQYSSuZe_WuAmER0y-25" value="" style="endArrow=classic;html=1;" edge="1" parent="1">
          <mxGeometry width="50" height="50" relative="1" as="geometry">
            <mxPoint x="151.5" y="244" as="sourcePoint" />
            <mxPoint x="152" y="284" as="targetPoint" />
          </mxGeometry>
        </mxCell>
        <mxCell id="HW6tQYSSuZe_WuAmER0y-26" value="" style="endArrow=classic;html=1;" edge="1" parent="1" target="HW6tQYSSuZe_WuAmER0y-3">
          <mxGeometry width="50" height="50" relative="1" as="geometry">
            <mxPoint x="149.5" y="170" as="sourcePoint" />
            <mxPoint x="150" y="210" as="targetPoint" />
          </mxGeometry>
        </mxCell>
      </root>
    </mxGraphModel>
  </diagram>
</mxfile>
